<svg xmlns="http://www.w3.org/2000/svg" viewBox="0 0 1600 900" role="img" aria-labelledby="title description">
  <title id="title">MyVNG project cover</title>
  <desc id="description">An abstract mobile product interface and delivery pipeline.</desc>
  <rect width="1600" height="900" fill="#e8e2d7"/>
  <path d="M0 655C260 500 425 748 686 592c285-171 494-68 914-284v592H0z" fill="#d5b38a" opacity=".55"/>
  <g transform="translate(865 88)">
    <rect width="390" height="708" rx="62" fill="#24221f"/>
    <rect x="18" y="18" width="354" height="672" rx="48" fill="#fbfaf6"/>
    <rect x="139" y="38" width="112" height="18" rx="9" fill="#24221f"/>
    <circle cx="88" cy="124" r="28" fill="#bf6c44"/>
    <rect x="132" y="105" width="160" height="16" rx="8" fill="#3d3933"/>
    <rect x="132" y="134" width="106" height="12" rx="6" fill="#aaa398"/>
    <rect x="54" y="190" width="282" height="154" rx="28" fill="#bf6c44"/>
    <rect x="80" y="225" width="178" height="20" rx="10" fill="#f7decf"/>
    <rect x="80" y="264" width="222" height="34" rx="11" fill="#fffaf4"/>
    <g fill="#ebe6dc">
      <rect x="54" y="382" width="132" height="112" rx="24"/>
      <rect x="204" y="382" width="132" height="112" rx="24"/>
      <rect x="54" y="518" width="282" height="28" rx="14"/>
      <rect x="54" y="570" width="242" height="28" rx="14"/>
    </g>
  </g>
  <g transform="translate(210 246)">
    <text x="0" y="0" fill="#24221f" font-family="Arial, sans-serif" font-size="112" font-weight="700">MyVNG</text>
    <text x="7" y="72" fill="#8d4d32" font-family="Arial, sans-serif" font-size="28" letter-spacing="5">MOBILE EXPERIENCE</text>
    <g transform="translate(8 154)" fill="none" stroke="#8d4d32" stroke-width="12" stroke-linecap="round" stroke-linejoin="round">
      <circle cx="34" cy="34" r="28"/>
      <path d="M62 34h110l34 62h118"/>
      <circle cx="358" cy="96" r="28"/>
      <path d="M386 96h114"/>
    </g>
    <text x="8" y="338" fill="#665e54" font-family="Arial, sans-serif" font-size="25">UI · REST API · CI/CD</text>
  </g>
</svg>
